<?xml version="1.0" standalone="no"?>
<!DOCTYPE svg PUBLIC "-//W3C//DTD SVG 20010904//EN"
 "http://www.w3.org/TR/2001/REC-SVG-20010904/DTD/svg10.dtd">
<svg version="1.0" xmlns="http://www.w3.org/2000/svg"
 width="500.000000pt" height="500.000000pt" viewBox="0 0 500.000000 500.000000"
 preserveAspectRatio="xMidYMid meet">
<metadata>
Created by potrace 1.11, written by Peter Selinger 2001-2013
</metadata>
<g transform="translate(0.000000,500.000000) scale(0.100000,-0.100000)"
fill="#000000" stroke="none">
<path d="M1430 4770 l0 -150 -150 0 -150 0 0 -150 0 -150 -150 0 -150 0 0
-150 0 -150 -150 0 -150 0 0 -455 0 -455 -150 0 -150 0 0 -1060 0 -1060 150 0
150 0 0 -300 0 -300 150 0 150 0 0 -150 0 -150 305 0 305 0 0 155 0 155 -150
0 -150 0 0 145 0 145 150 0 150 0 0 150 0 150 150 0 150 0 0 -150 0 -150 605
0 606 0 -3 153 -3 152 -602 -4 -603 -4 0 152 0 151 -155 0 -155 0 0 305 0 305
-150 0 -150 0 0 307 0 306 455 -6 455 -7 0 156 0 155 -150 -3 -150 -3 0 153 0
152 150 0 150 0 0 145 0 145 -305 0 -305 0 0 160 0 160 155 0 155 0 0 148 0
147 602 0 603 0 5 -150 5 -150 153 -3 152 -3 0 -154 0 -155 -305 0 -305 0 0
-145 0 -145 150 0 150 0 0 -152 0 -153 -150 3 -149 3 -3 147 -3 147 -297 3
-298 2 0 -150 0 -150 300 0 300 0 0 -155 0 -155 455 7 455 6 0 -306 0 -307
-150 0 -150 0 0 -305 0 -305 -155 0 -155 0 0 -150 0 -150 150 0 150 0 0 -150
0 -150 300 0 300 0 0 -150 0 -150 305 0 305 0 0 150 0 150 150 0 150 0 0 155
0 155 -150 0 -150 0 0 150 0 150 -150 0 -150 0 -2 1207 -3 1208 -147 3 -148 3
0 299 0 300 -150 0 -150 0 0 150 0 150 -150 0 -150 0 0 150 0 150 -915 0 -915
0 0 -150z m10 -1815 l0 -155 -155 0 -155 0 0 155 0 155 155 0 155 0 0 -155z
m2120 0 l0 -155 -155 0 -155 0 0 148 c0 82 3 152 7 155 3 4 73 7 155 7 l148 0
0 -155z"/>
<path d="M1750 1751 l0 -150 148 -3 147 -3 3 -142 3 -143 97 -1 c53 0 188 -2
300 -5 l202 -5 0 145 0 146 -302 2 -303 3 -5 150 -5 150 -142 3 -143 3 0 -150z"/>
<path d="M2657 1893 c-4 -3 -7 -71 -7 -150 l0 -143 145 0 145 0 0 150 0 150
-138 0 c-76 0 -142 -3 -145 -7z"/>
</g>
</svg>
